<svg width="33" height="33" viewBox="0 0 33 33" fill="none" xmlns="http://www.w3.org/2000/svg">
<path d="M27.1667 12.2725H15.1667C13.6939 12.2725 12.5 13.4664 12.5 14.9391V26.9391C12.5 28.4119 13.6939 29.6058 15.1667 29.6058H27.1667C28.6394 29.6058 29.8333 28.4119 29.8333 26.9391V14.9391C29.8333 13.4664 28.6394 12.2725 27.1667 12.2725Z" stroke="white" stroke-width="3" stroke-linecap="round" stroke-linejoin="round"/>
<path d="M7.1665 20.2725H5.83317C5.12593 20.2725 4.44765 19.9915 3.94755 19.4914C3.44746 18.9913 3.1665 18.313 3.1665 17.6058V5.6058C3.1665 4.89856 3.44746 4.22028 3.94755 3.72018C4.44765 3.22008 5.12593 2.93913 5.83317 2.93913H17.8332C18.5404 2.93913 19.2187 3.22008 19.7188 3.72018C20.2189 4.22028 20.4998 4.89856 20.4998 5.6058V6.93913" stroke="white" stroke-width="3" stroke-linecap="round" stroke-linejoin="round"/>
</svg>
