<svg width="33" height="33" viewBox="0 0 33 33" fill="none" xmlns="http://www.w3.org/2000/svg">
<g clip-path="url(#clip0_206_276)">
<path d="M31.1665 5.60579V13.6058H23.1665" stroke="white" stroke-width="2" stroke-linecap="round" stroke-linejoin="round"/>
<path d="M1.8335 26.9391V18.9391H9.8335" stroke="white" stroke-width="2" stroke-linecap="round" stroke-linejoin="round"/>
<path d="M5.18016 12.2725C5.85639 10.3615 7.00567 8.653 8.52078 7.30636C10.0359 5.95971 11.8674 5.01882 13.8445 4.57148C15.8216 4.12413 17.8798 4.18492 19.8271 4.74816C21.7743 5.31141 23.5472 6.35875 24.9802 7.79247L30.1668 12.6058M2.8335 19.9391L8.02016 24.7525C9.45316 26.1862 11.226 27.2335 13.1732 27.7968C15.1205 28.36 17.1787 28.4208 19.1558 27.9735C21.1329 27.5261 22.9644 26.5852 24.4795 25.2386C25.9946 23.8919 27.1439 22.1834 27.8202 20.2725" stroke="white" stroke-width="3" stroke-linecap="round" stroke-linejoin="round"/>
</g>
<defs>
<clipPath id="clip0_206_276">
<rect width="32" height="32" fill="white" transform="translate(0.5 0.272461)"/>
</clipPath>
</defs>
</svg>
